<svg width="32" height="32" viewBox="0 0 32 32" fill="none" xmlns="http://www.w3.org/2000/svg">
  <path d="M16 2C13 2 10.5 2.5 8.5 4.5C6.5 6.5 6 9.5 6 12C6 14.5 7 17 8 19.5C9 22 10 24.5 9 27C9 28.5 10 29.5 11.5 29.5C13 29.5 14.5 28.5 15.5 26.5C15.8 25.8 16.2 25.8 16.5 26.5C17.5 28.5 19 29.5 20.5 29.5C22 29.5 23 28.5 23 27C23 24.5 21 22 22 19.5C23 17 26 14.5 26 12C26 9.5 25.5 6.5 23.5 4.5C21.5 2.5 19 2 16 2Z" fill="#014880"/>
  <path d="M21 7C21.5 7 22 7.5 22 8C22 8.5 21.5 9 21 9C20.5 9 20 8.5 20 8C20 7.5 20.5 7 21 7Z" fill="white" fill-opacity="0.8"/>
  <path d="M23 10C23.5 10 24 10.5 24 11C24 11.5 23.5 12 23 12C22.5 12 22 11.5 22 11C22 10.5 22.5 10 23 10Z" fill="white" fill-opacity="0.6"/>
</svg>
